<svg xmlns="http://www.w3.org/2000/svg" width="70" height="75" viewBox="0 0 70 75" fill="none">
  <g clip-path="url(#clip0_265_11116)">
    <path fill-rule="evenodd" clip-rule="evenodd" d="M69.7974 36.7447C69.78 36.5555 69.744 36.3758 69.7907 36.1799C69.8148 36.0779 69.7573 35.9505 69.7186 35.8405C69.6759 35.7224 69.6879 35.6164 69.7119 35.497C69.7373 35.3642 69.7373 35.2207 69.7146 35.0865C69.6866 34.9175 69.6598 34.7538 69.6759 34.5807C69.6932 34.3889 69.6799 34.1943 69.6799 34.0012C69.5463 33.7476 69.7119 33.4793 69.6451 33.223C69.7453 32.9373 69.6478 32.6542 69.6104 32.3765C69.585 32.186 69.569 31.9968 69.5597 31.8063C69.5503 31.6158 69.5971 31.42 69.5196 31.2335C69.5089 31.2093 69.5249 31.1731 69.5303 31.1423C69.5891 30.8189 69.5971 30.5063 69.3901 30.2233C69.3486 30.1669 69.338 30.0851 69.3179 30.014C69.2792 29.8825 69.2445 29.7497 69.2057 29.6169C69.179 29.5256 69.1483 29.4358 69.1243 29.3432C69.0161 28.93 68.9626 28.5101 68.9413 28.0848C68.9386 28.0217 68.9212 27.9587 68.9146 27.8956C68.9012 27.7789 68.8758 27.6622 68.8838 27.5468C68.8972 27.3389 68.8625 27.139 68.7997 26.9485C68.7476 26.7902 68.7783 26.6037 68.6434 26.4695C68.6247 26.4521 68.6287 26.4078 68.6301 26.3756C68.6394 26.2495 68.6528 26.1247 68.6648 25.9892C68.5112 25.7518 68.5139 25.7518 68.5019 25.4338C68.4992 25.3507 68.4845 25.2635 68.4564 25.1856C68.3389 24.857 68.1519 24.5511 68.1159 24.1929C68.1145 24.1727 68.0972 24.1553 68.0905 24.1352C67.985 23.8239 67.7953 23.5435 67.7459 23.2095C67.7406 23.1706 67.7085 23.133 67.6805 23.1022C67.5229 22.9318 67.4494 22.7171 67.3973 22.4998C67.3719 22.3938 67.3492 22.2878 67.2798 22.206C67.2117 22.1242 67.197 22.0329 67.205 21.9363C67.2183 21.7592 67.1569 21.6009 67.0955 21.4413C67.0661 21.3621 67.0247 21.2816 67.0207 21.1998C67.0073 20.9355 66.9098 20.6981 66.7936 20.4727C66.7095 20.3117 66.6347 20.1507 66.5893 19.9776C66.5479 19.8234 66.4958 19.6771 66.4023 19.543C66.3074 19.4075 66.3155 19.2116 66.1605 19.1043C66.1472 19.0949 66.1432 19.064 66.1458 19.0439C66.1779 18.8279 66.0497 18.679 65.9268 18.5314C65.8493 18.4388 65.7959 18.3396 65.7639 18.2228C65.7225 18.0766 65.641 17.9438 65.5234 17.8539C65.4406 17.7909 65.3885 17.713 65.3538 17.6272C65.2283 17.324 65.0253 17.0865 64.7822 16.8719C64.5484 16.6666 64.3761 16.4117 64.2573 16.1193C64.1985 15.9744 64.1464 15.8187 63.9781 15.7436C63.9301 15.7221 63.9033 15.6443 63.8726 15.5893C63.7791 15.4216 63.675 15.2593 63.6002 15.0836C63.52 14.893 63.3744 14.7508 63.2729 14.5778C63.1501 14.3658 63.0071 14.1659 62.8696 13.9633C62.6799 13.6816 62.4943 13.3972 62.2966 13.1222C62.1617 12.9357 62.0508 12.7237 61.8305 12.6137C61.7704 12.5842 61.749 12.5278 61.7156 12.4715C61.6649 12.383 61.5887 12.289 61.5006 12.2461C61.3991 12.1978 61.3229 12.1294 61.2548 12.0516C61.1493 11.9322 61.0612 11.798 60.9596 11.6759C60.9062 11.6102 60.8475 11.5217 60.7753 11.5042C60.6351 11.4693 60.5723 11.3741 60.4922 11.2708C60.4094 11.1648 60.2731 11.1017 60.1797 11.0025C59.998 10.8079 59.787 10.6416 59.6187 10.4363C59.4691 10.2552 59.3209 10.0795 59.1285 9.93994C59.0457 9.87957 58.999 9.77492 58.8748 9.77895C58.8601 9.77895 58.8374 9.7548 58.8307 9.73736C58.7692 9.58308 58.621 9.50661 58.5008 9.42477C58.3472 9.32013 58.3058 9.11218 58.1188 9.05047C58.0948 9.04242 58.0841 8.99815 58.0627 8.97534C57.8463 8.74057 57.638 8.49774 57.4109 8.27504C57.1131 7.98391 56.8006 7.71023 56.4947 7.4285C56.4239 7.36276 56.3598 7.30105 56.257 7.27824C56.1181 7.24739 56.0165 7.14811 55.9244 7.03944C55.8857 6.99249 55.8416 6.94419 55.7908 6.91468C55.497 6.74698 55.1992 6.5833 54.9026 6.41963C54.8011 6.36329 54.693 6.31767 54.5928 6.26133C54.4819 6.19961 54.3737 6.13119 54.2656 6.06411C54.2108 6.03057 54.1627 5.98764 54.1053 5.96081C53.738 5.78507 53.4388 5.50468 53.0835 5.3088C53.0742 5.30344 53.0675 5.29539 53.0595 5.28734C52.9353 5.16257 52.7777 5.10086 52.6187 5.03646C52.5212 4.99756 52.4157 4.95329 52.3476 4.8795C52.166 4.68363 51.9296 4.59643 51.6958 4.49849C51.5796 4.44885 51.4674 4.38848 51.3539 4.33214C51.2778 4.29323 51.2057 4.24091 51.1255 4.21542C50.9733 4.16846 50.8237 4.13358 50.7222 3.99003C50.6968 3.95381 50.6287 3.93369 50.5793 3.92832C50.4457 3.9149 50.3389 3.85319 50.2347 3.7727C50.0918 3.66269 49.9435 3.55805 49.7979 3.4534C49.7552 3.42255 49.7071 3.3662 49.667 3.37157C49.4907 3.39571 49.3612 3.28168 49.225 3.2146C48.9992 3.10459 48.7161 3.11532 48.5425 2.89128C48.5224 2.86445 48.4623 2.86981 48.4236 2.85506C48.3354 2.82018 48.2433 2.79066 48.1645 2.74102C47.884 2.56662 47.6049 2.3949 47.2723 2.33318C47.2109 2.32245 47.1374 2.30233 47.0987 2.2594C47.0132 2.16549 46.909 2.17756 46.8035 2.17085C46.698 2.1628 46.5925 2.1467 46.4869 2.13463C46.4349 2.12926 46.3814 2.11853 46.3293 2.12121C46.0409 2.13731 45.5039 2.05548 45.2435 1.94413C45.0098 1.84485 44.7453 1.83412 44.5276 1.68923C44.5036 1.67313 44.4648 1.68252 44.4328 1.67849C44.1283 1.63556 43.8291 1.56043 43.5419 1.45982C43.2508 1.35651 42.9609 1.26529 42.6537 1.23443C42.603 1.22906 42.5469 1.21028 42.5095 1.17942C42.4053 1.09491 42.2891 1.0882 42.1783 1.13649C42.0567 1.18882 41.9579 1.16064 41.843 1.11503C41.636 1.03319 41.4196 0.978188 41.1939 0.987579C41.0897 0.991604 40.9829 1.03453 40.8814 1.0238C40.7692 1.01173 40.661 0.959406 40.5515 0.924525C40.5421 0.921842 40.5301 0.924525 40.5194 0.923184C40.2817 0.895011 40.0533 0.794392 39.8062 0.837323C39.5204 0.739388 39.2092 0.860129 38.926 0.738045C38.7698 0.817198 38.6148 0.728655 38.4599 0.735363C38.3117 0.74207 38.1607 0.707189 38.0192 0.782318C37.9938 0.795734 37.9551 0.79305 37.9257 0.786342C37.7614 0.748778 37.5971 0.705848 37.4328 0.666942C37.3407 0.645477 37.2472 0.613278 37.1537 0.613278C36.9921 0.611937 36.8345 0.601205 36.6822 0.547541C36.5086 0.485829 36.3269 0.493878 36.1466 0.481804C35.9169 0.465705 35.6818 0.562299 35.4561 0.450948C35.4334 0.440215 35.3947 0.458997 35.364 0.465705C35.2144 0.503269 35.0701 0.484488 34.9259 0.429483C34.7683 0.36777 34.6053 0.319473 34.4424 0.271176C34.3823 0.253736 34.3168 0.251053 34.2554 0.252394C34.2033 0.253736 34.1526 0.276542 34.1005 0.279226C33.8347 0.287275 33.5649 0.315448 33.3018 0.289958C33.0413 0.264468 32.7742 0.315448 32.5164 0.23227C32.4603 0.213488 32.3909 0.224221 32.3294 0.233612C32.1198 0.26581 31.9114 0.303374 31.7017 0.338255C31.5241 0.36777 31.3464 0.416067 31.1675 0.420092C30.8456 0.425458 30.5357 0.493879 30.2259 0.563641C30.099 0.591814 29.9761 0.610596 29.8492 0.611938C29.7103 0.613279 29.5674 0.59718 29.4338 0.624011C29.164 0.676333 28.8996 0.755486 28.6325 0.819882C28.5724 0.834639 28.4989 0.862812 28.4508 0.842688C28.3547 0.799758 28.2772 0.830615 28.2118 0.878912C28.0795 0.978188 27.9353 1.02917 27.775 1.056C27.7256 1.06405 27.6735 1.09088 27.6374 1.12576C27.5025 1.25187 27.3276 1.30151 27.1673 1.37798C27.0671 1.42493 26.9656 1.42493 26.8574 1.42493C26.6411 1.42493 26.4154 1.38334 26.2164 1.52824C26.1709 1.56177 26.0935 1.55909 26.0307 1.55641C25.8691 1.54702 25.7142 1.57787 25.5592 1.61946C25.2427 1.70264 24.9088 1.72679 24.6176 1.89985C24.5749 1.92534 24.5148 1.92266 24.4627 1.93205C24.3692 1.94949 24.2757 1.97096 24.1822 1.98437C23.8683 2.02999 23.5905 2.23927 23.2566 2.19098C23.2473 2.18963 23.2366 2.19634 23.2259 2.19902C23.0643 2.25269 22.904 2.30635 22.7424 2.36001C22.6022 2.40697 22.4686 2.46466 22.3364 2.53844C22.124 2.6565 21.917 2.78932 21.686 2.87384C21.4963 2.94226 21.32 3.06837 21.1277 3.09922C20.9407 3.13008 20.7777 3.19716 20.6255 3.28973C20.4692 3.38498 20.3023 3.44804 20.1393 3.52451C19.8922 3.64122 19.6531 3.78477 19.3727 3.8116C19.3433 3.81429 19.3005 3.83307 19.2912 3.85588C19.2444 3.97796 19.1269 3.9793 19.0321 4.02223C18.9172 4.07455 18.7917 4.12017 18.6955 4.19798C18.5326 4.33079 18.3255 4.40056 18.1893 4.56825C18.1626 4.60045 18.1252 4.63131 18.0878 4.64472C17.9369 4.69705 17.782 4.74132 17.6991 4.89828C17.4587 5.0311 17.2183 5.16526 16.9766 5.29673C16.7656 5.41211 16.5665 5.557 16.3168 5.5798C16.3074 5.58115 16.2968 5.59054 16.2914 5.59859C16.2019 5.71799 16.0563 5.73677 15.9361 5.79982C15.852 5.8441 15.7678 5.89239 15.6917 5.94874C15.5715 6.03594 15.454 6.12851 15.3378 6.22242C15.255 6.28816 15.1735 6.35658 15.0934 6.42634C15.0146 6.4961 14.9491 6.58465 14.8623 6.64099C14.702 6.74564 14.5297 6.8315 14.3641 6.92809C14.2813 6.97639 14.1918 7.01932 14.1264 7.08506C13.8419 7.37081 13.4813 7.56534 13.2021 7.85915C13.0272 8.04294 12.8322 8.20662 12.6585 8.3931C12.6011 8.45481 12.5464 8.51384 12.4796 8.56884C12.123 8.86667 11.7156 9.10547 11.4258 9.47978C11.4071 9.50392 11.3777 9.52271 11.351 9.5388C11.1814 9.63808 11.0598 9.78297 10.945 9.93859C10.8822 10.0231 10.7994 10.0915 10.7219 10.164C10.5429 10.3303 10.3546 10.486 10.185 10.6617C9.91119 10.9461 9.64941 11.2413 9.38496 11.5337C9.32085 11.6048 9.26475 11.6826 9.20465 11.7564C9.04037 11.963 8.89879 12.1871 8.69044 12.3601C8.54486 12.4809 8.40194 12.6137 8.30845 12.7895C8.27907 12.8445 8.22831 12.8928 8.17489 12.9276C8.04667 13.0122 7.95585 13.1342 7.87571 13.2536C7.79023 13.3811 7.68739 13.4844 7.57654 13.5837C7.55383 13.6051 7.50708 13.6145 7.50174 13.6373C7.45099 13.8345 7.27202 13.9365 7.17452 14.0935C7.04363 14.3054 6.85263 14.457 6.70438 14.6502C6.6189 14.7602 6.53876 14.8702 6.47198 14.9923C6.27832 15.3465 6.09267 15.706 5.80818 16.0025C5.74541 16.0683 5.70668 16.1649 5.67596 16.2534C5.59716 16.4788 5.47962 16.6827 5.31801 16.8544C5.19247 16.9886 5.08562 17.1308 4.98945 17.2851C4.91599 17.4018 4.85856 17.5333 4.76908 17.6352C4.64754 17.7721 4.57274 17.9331 4.48459 18.0887C4.32298 18.3744 4.21079 18.6897 3.99442 18.9446C3.96771 18.9755 3.95035 19.0171 3.93699 19.0573C3.81545 19.4128 3.58038 19.7026 3.38672 20.0273C3.3747 20.1212 3.38004 20.2352 3.34131 20.3305C3.2812 20.4754 3.19572 20.6109 3.11025 20.745C3.03545 20.8617 2.97936 20.9852 2.92059 21.1113C2.79504 21.3836 2.67884 21.6559 2.60538 21.9471C2.5947 21.9873 2.56665 22.0235 2.55196 22.0638C2.47583 22.2623 2.37833 22.4569 2.33025 22.6635C2.28083 22.8754 2.17532 23.0284 2.00836 23.1558C1.95227 23.1988 1.90953 23.2632 1.86545 23.3208C1.80802 23.3973 1.7546 23.4765 1.70385 23.557C1.6758 23.6012 1.65443 23.6482 1.63573 23.6978C1.54491 23.946 1.47278 24.2023 1.36193 24.4411C1.25642 24.6691 1.19898 24.9053 1.19898 25.1494C1.19898 25.466 1.12018 25.7585 1.00265 26.0456C0.978608 26.1033 0.96258 26.1663 0.946553 26.2267C0.909156 26.3595 0.882444 26.4964 0.833026 26.6238C0.794293 26.7244 0.766245 26.8224 0.754225 26.931C0.732855 27.1202 0.694122 27.308 0.648711 27.4918C0.592615 27.7185 0.516486 27.9399 0.459054 28.1653C0.441691 28.235 0.437685 28.3209 0.46039 28.388C0.49378 28.4859 0.496451 28.5691 0.457718 28.6644C0.43902 28.71 0.452376 28.7703 0.451041 28.824C0.444363 29.048 0.479088 29.2734 0.39628 29.4921C0.382924 29.5297 0.380253 29.5833 0.397616 29.6182C0.463061 29.7577 0.390938 29.8906 0.389603 30.0261C0.388267 30.1642 0.37224 30.2997 0.35087 30.4379C0.31748 30.6512 0.194603 30.8672 0.321486 31.0953C0.34152 31.1329 0.310801 31.1986 0.306794 31.2509C0.302788 31.3019 0.290766 31.3556 0.304123 31.4025C0.321486 31.4669 0.324157 31.5233 0.297445 31.5877C0.173233 31.8841 0.195938 32.1941 0.229329 32.504C0.233335 32.5442 0.252035 32.5898 0.24135 32.6247C0.147857 32.9279 0.265391 33.2177 0.302788 33.5088C0.334842 33.7664 0.337513 34.0213 0.314808 34.2762C0.297445 34.4653 0.244021 34.6518 0.217309 34.8396C0.209295 34.9 0.223986 34.9671 0.242685 35.0275C0.318814 35.2757 0.345527 35.5279 0.332171 35.7868C0.325493 35.9156 0.3295 36.0444 0.332171 36.1732C0.333507 36.2376 0.330836 36.306 0.354877 36.3637C0.425664 36.5327 0.440356 36.7138 0.487102 36.8882C0.51515 36.9956 0.505801 37.0935 0.489774 37.2022C0.463061 37.3806 0.468403 37.563 0.459054 37.7442C0.580595 37.9856 0.537856 38.2714 0.666075 38.5115C0.679431 38.537 0.68878 38.5773 0.679431 38.6028C0.600629 38.8067 0.696793 39.0026 0.716828 39.1971C0.756896 39.5875 0.779601 39.8598 0.711485 40.2435C0.702136 40.2945 0.704806 40.3509 0.714156 40.4018C0.775594 40.7359 0.906485 41.0565 0.890458 41.404C0.889122 41.4348 0.902477 41.467 0.914498 41.4966C0.963915 41.6213 0.954566 41.7474 0.925183 41.8749C0.915834 41.9138 0.911827 41.9554 0.915834 41.9956C0.942546 42.2814 0.978608 42.5645 1.10816 42.8274C1.12686 42.865 1.12553 42.9106 1.13755 42.9508C1.17227 43.0622 1.20433 43.1749 1.2484 43.2835C1.30583 43.4271 1.42604 43.5559 1.33121 43.7289C1.3272 43.737 1.32854 43.7544 1.33388 43.7598C1.43138 43.8457 1.39131 43.9704 1.42604 44.0737C1.47011 44.2039 1.53155 44.3286 1.58097 44.4574C1.66378 44.6761 1.75593 44.8921 1.82138 45.1161C1.89217 45.363 1.96162 45.6085 2.08049 45.8352C2.16463 45.9962 2.23408 46.1626 2.26347 46.3437C2.27015 46.3853 2.28484 46.4269 2.30487 46.4631C2.49586 46.8092 2.58401 47.1969 2.73627 47.5592C2.87117 47.8811 2.96066 48.2232 3.07018 48.5559C3.09288 48.6271 3.11158 48.6995 3.14097 48.7679C3.24247 49.0067 3.2772 49.165 3.27319 49.3985C3.27319 49.428 3.26785 49.4682 3.28521 49.487C3.3747 49.5876 3.37737 49.7245 3.44148 49.8331C3.51093 49.9512 3.58038 50.0639 3.57771 50.2061C3.57771 50.2155 3.58439 50.2262 3.58973 50.2356C3.69792 50.4288 3.79942 50.6273 3.91696 50.8152C4.03315 51.0016 4.1961 51.1667 4.16137 51.4149C4.1587 51.431 4.17874 51.4524 4.18942 51.4699C4.27356 51.6013 4.25219 51.7865 4.40445 51.8857C4.42449 51.8992 4.42182 51.9448 4.4325 51.9756C4.46723 52.0749 4.49261 52.1809 4.54336 52.2721C4.63552 52.4398 4.75973 52.5901 4.8412 52.7618C5.04021 53.1831 5.28462 53.5815 5.47027 54.0108C5.48363 54.0403 5.49031 54.0752 5.51034 54.098C5.70668 54.31 5.84291 54.5582 5.97247 54.8144C6.06329 54.9928 6.2102 55.1431 6.30102 55.3215C6.39452 55.504 6.60287 55.5965 6.64962 55.8072C6.92876 56.042 7.08102 56.3787 7.31342 56.6484C7.46568 56.8254 7.57119 57.032 7.72479 57.2064C7.85167 57.35 7.98256 57.4909 8.09475 57.6465C8.17756 57.7605 8.26972 57.8558 8.38592 57.9336C8.5542 58.049 8.69711 58.1858 8.78927 58.3736C8.81198 58.4206 8.84804 58.4662 8.88944 58.4971C9.08044 58.6379 9.15656 58.8861 9.36626 59.0082C9.38228 59.0176 9.39831 59.0444 9.39698 59.0605C9.38496 59.2094 9.49982 59.2698 9.59732 59.3221C9.77496 59.4174 9.88314 59.6159 10.0968 59.6575C10.1235 59.6629 10.1489 59.6951 10.1676 59.7206C10.3319 59.9486 10.5843 60.0761 10.7873 60.2626C10.8568 60.327 10.9303 60.3766 10.9864 60.4611C11.1226 60.6637 11.2935 60.8327 11.5113 60.9575C11.7036 61.0675 11.9026 61.1762 12.0548 61.3466C12.1256 61.4257 12.1884 61.521 12.2766 61.5719C12.5651 61.741 12.7854 61.9932 13.0579 62.177C13.2329 62.2951 13.3958 62.4265 13.5547 62.5647C13.6683 62.664 13.7297 62.8411 13.9287 62.8263C13.9594 62.8236 13.9915 62.88 14.0262 62.9055C14.2399 63.0638 14.4429 63.2342 14.6726 63.371C14.8356 63.4676 15.0132 63.532 15.1722 63.646C15.3204 63.752 15.466 63.8553 15.5969 63.9814C15.657 64.0391 15.7264 64.0981 15.8026 64.1277C16.063 64.2283 16.2861 64.3906 16.5185 64.5368C16.644 64.616 16.7656 64.7059 16.8964 64.7756C17.0741 64.8722 17.2651 64.946 17.4013 65.107C17.4213 65.1311 17.4521 65.154 17.4814 65.158C17.6364 65.1821 17.7446 65.2935 17.8768 65.3592C18.212 65.5229 18.5192 65.7322 18.8277 65.9388C19.0922 66.1159 19.35 66.2836 19.6585 66.3922C20.0057 66.5143 20.3196 66.7263 20.6535 66.8913C20.8966 67.0121 21.0996 67.2173 21.3894 67.2401C21.4242 67.2428 21.4522 67.2951 21.4883 67.3112C21.7354 67.4266 21.9477 67.6238 22.2456 67.6238C22.3164 67.6238 22.3871 67.6667 22.4579 67.6936C22.6476 67.7633 22.8493 67.813 23.0229 67.9122C23.2179 68.0249 23.4236 68.0223 23.6306 68.0424C23.6613 68.0451 23.6907 68.0639 23.7201 68.0773C23.867 68.1403 24.0139 68.2007 24.1595 68.2664C24.3345 68.3456 24.5094 68.4194 24.7084 68.4127C24.7699 68.4113 24.8393 68.4221 24.8928 68.4516C25.2881 68.6716 25.7355 68.7373 26.1549 68.8876C26.3098 68.9439 26.4768 68.9976 26.6531 68.9801C26.6945 68.9761 26.7546 68.9734 26.7773 68.9962C26.9015 69.1277 27.0778 69.0861 27.2247 69.1438C27.3409 69.1894 27.4772 69.2297 27.596 69.2122C27.7937 69.1841 27.938 69.2713 28.1009 69.3491C28.2278 69.4095 28.3707 69.4537 28.5109 69.4725C28.8569 69.5181 29.2055 69.5476 29.5527 69.5731C29.7424 69.5879 29.9347 69.5812 30.1257 69.5852C30.1885 69.5865 30.2526 69.5812 30.3113 69.5946C30.7454 69.6952 31.1808 69.7931 31.6122 69.9058C31.7591 69.9447 31.9021 69.9649 32.0516 69.9689C32.4443 69.981 32.841 69.9233 33.2297 70.0252C33.2898 70.0413 33.3579 70.0279 33.422 70.0293C33.4754 70.0306 33.5355 70.0199 33.5809 70.04C33.7452 70.1124 33.9175 70.0869 34.0871 70.091C34.2581 70.095 34.4317 70.0762 34.5987 70.099C34.9099 70.142 35.2157 70.2345 35.5349 70.1567C35.5643 70.15 35.603 70.15 35.6298 70.1621C35.8087 70.2412 36.0024 70.1567 36.184 70.2144C36.2121 70.2238 36.2495 70.2157 36.2789 70.2063C36.53 70.1272 36.7811 70.1326 37.0335 70.197C37.0722 70.2077 37.1176 70.209 37.1577 70.201C37.3019 70.1701 37.4449 70.1312 37.5904 70.099C37.704 70.0735 37.8175 70.0387 37.9337 70.0333C38.2622 70.0172 38.5868 69.934 38.9194 69.9662C38.9501 69.9689 38.9861 69.9662 39.0142 69.9541C39.1678 69.8871 39.3294 69.9005 39.4883 69.9085C39.6967 69.9193 39.8837 69.875 40.0733 69.7838C40.243 69.7019 40.4326 69.6469 40.6196 69.6187C40.7104 69.6053 40.8066 69.6026 40.9001 69.5812C40.9602 69.5678 41.0296 69.545 41.0844 69.5611C41.1779 69.5892 41.2473 69.557 41.3288 69.5248C41.5358 69.443 41.7429 69.3491 41.9579 69.2994C42.0928 69.2686 42.2277 69.2404 42.3559 69.1921C42.5415 69.1197 42.7352 69.0714 42.9209 68.9922C43.2588 68.8487 43.6488 68.8621 43.9773 68.6702C44.0107 68.6515 44.0615 68.6662 44.1042 68.6582C44.1456 68.6515 44.187 68.6407 44.2244 68.6219C44.4942 68.4838 44.748 68.3 45.0779 68.3375C45.126 68.3429 45.1767 68.2986 45.2275 68.2879C45.536 68.2275 45.8245 68.0759 46.149 68.084C46.1891 68.0853 46.2292 68.0558 46.2692 68.0424C46.4001 67.9981 46.535 67.9646 46.6632 67.9109C46.9544 67.7902 47.2843 67.7674 47.5434 67.5581C47.6423 67.4776 47.7598 67.4212 47.8626 67.3461C47.9307 67.2965 47.9962 67.2871 48.0723 67.3166C48.1111 67.3313 48.1511 67.3407 48.2072 67.3555C48.2727 67.2119 48.4049 67.1744 48.5318 67.1207C48.7081 67.0469 48.8937 66.9812 49.0447 66.8712C49.1582 66.788 49.269 66.7209 49.3932 66.6713C49.5148 66.7397 49.5749 66.8283 49.5669 66.9638C49.5562 67.1355 49.5736 67.3032 49.627 67.4695C49.7138 67.7352 49.7312 68.0102 49.6817 68.2865C49.6697 68.3509 49.6737 68.41 49.6804 68.473C49.6871 68.5347 49.6791 68.6018 49.659 68.6595C49.6083 68.799 49.5535 68.9386 49.4894 69.0727C49.3612 69.341 49.2276 69.6053 49.1876 69.9058C49.1769 69.989 49.1381 70.0695 49.1048 70.1473C49.0794 70.205 49.05 70.2694 49.0032 70.307C48.8617 70.4183 48.8082 70.5753 48.7535 70.7349C48.7268 70.8154 48.7027 70.8986 48.66 70.971C48.4904 71.2649 48.3101 71.5506 48.1404 71.8458C47.9601 72.161 47.7424 72.4508 47.5047 72.7205C47.2255 73.0384 46.9798 73.3913 46.6339 73.6475C46.6178 73.6596 46.6031 73.681 46.6005 73.7012C46.5885 73.8045 46.507 73.8219 46.4322 73.8662C46.2612 73.9681 46.0689 74.0607 46.0355 74.2968C46.0769 74.3827 46.113 74.4739 46.1624 74.5557C46.2572 74.7127 46.4522 74.8227 46.5911 74.7691C46.8128 74.6832 47.0466 74.6953 47.271 74.643C47.3751 74.6188 47.4726 74.549 47.5434 74.6899C47.6556 74.6886 47.7678 74.6859 47.88 74.6845C47.9842 74.5571 48.1378 74.6067 48.2593 74.5812C48.3288 74.5209 48.3835 74.4377 48.4543 74.4176C48.6052 74.3746 48.7668 74.3639 48.9231 74.3398C49.1608 74.3035 49.4146 74.3169 49.5922 74.1063C49.6096 74.0849 49.651 74.0661 49.6764 74.0714C49.814 74.101 49.8954 73.995 49.9876 73.9346C50.1292 73.8407 50.2547 73.724 50.3843 73.614C50.4484 73.559 50.5192 73.5281 50.5993 73.4946C50.9733 73.3403 51.3446 73.1753 51.6304 72.8667C51.7185 72.7714 51.7907 72.6292 51.967 72.6829C51.987 72.6883 52.0191 72.6494 52.0471 72.6346C52.2568 72.5233 52.4291 72.3609 52.56 72.1691C52.6962 71.9705 52.9099 71.8632 53.0635 71.6861C53.2825 71.6351 53.336 71.3534 53.567 71.3172C53.5804 71.3158 53.5937 71.2836 53.5978 71.2649C53.6258 71.1361 53.718 71.0676 53.8288 71.018C53.909 70.9831 53.965 70.9281 54.0145 70.8516C54.0666 70.7725 54.1454 70.7108 54.2121 70.6424C54.307 70.5431 54.4165 70.4586 54.4405 70.3043C54.4512 70.2372 54.5233 70.1876 54.5714 70.1326C54.733 69.9514 54.8733 69.7502 55.0229 69.5557C55.0322 69.4081 55.1364 69.3343 55.2432 69.2592C55.2566 69.2498 55.2566 69.2216 55.2633 69.2029C55.2312 69.1639 55.1978 69.125 55.1791 69.1022C55.2633 68.9506 55.3167 68.8084 55.4088 68.6984C55.6079 68.461 55.6867 68.1752 55.7815 67.8948C55.8122 67.8049 55.8576 67.7204 55.9017 67.6359C55.9885 67.4668 56.114 67.3193 56.1741 67.1328C56.2262 66.9718 56.2944 66.8135 56.3758 66.6646C56.468 66.4942 56.5027 66.3278 56.4079 66.1441C56.5508 65.9938 56.6109 65.8167 56.5962 65.6141C56.7578 65.3243 56.5174 65.0279 56.6096 64.7367C56.6136 64.7233 56.5922 64.6992 56.5788 64.6817C56.504 64.5825 56.5227 64.4845 56.5775 64.3826C56.6777 64.1907 56.7458 63.9935 56.6563 63.7762C56.6483 63.7574 56.655 63.7332 56.655 63.7118C56.651 63.5199 56.6697 63.3294 56.6002 63.1403C56.5735 63.0665 56.5762 62.9565 56.6136 62.8894C56.6737 62.778 56.6189 62.6841 56.6069 62.5889C56.7418 62.4695 56.882 62.3836 57.0503 62.3313C57.232 62.2749 57.256 62.0375 57.4296 61.9543C57.4937 61.9234 57.5512 61.8644 57.5939 61.8054C57.6968 61.6632 57.8316 61.5626 57.9746 61.47C58.2083 61.3197 58.3993 61.1198 58.5969 60.928C58.6343 60.8918 58.6744 60.8502 58.6958 60.8032C58.7826 60.6181 58.8908 60.4517 59.0617 60.331C59.1018 60.3028 59.1192 60.2424 59.1526 60.2022C59.1926 60.1539 59.2314 60.0949 59.2848 60.0667C59.4224 59.9929 59.5078 59.8735 59.608 59.7608C59.6881 59.6696 59.7456 59.5381 59.8978 59.526C59.9312 59.5234 59.9633 59.4764 59.9913 59.4455C60.0755 59.3503 60.1556 59.2497 60.2411 59.1544C60.3199 59.0672 60.4201 58.9934 60.4802 58.8955C60.5656 58.7533 60.6845 58.6513 60.802 58.544C60.8942 58.4608 60.9904 58.3736 61.0091 58.2354C61.0144 58.1952 61.0251 58.1482 61.0518 58.1187C61.1934 57.9604 61.339 57.8075 61.4846 57.6545C61.558 57.5767 61.6502 57.511 61.7049 57.4224C61.8251 57.2266 61.9934 57.0803 62.159 56.9314C62.2686 56.8335 62.3701 56.7248 62.4315 56.5866C62.5784 56.2566 62.7066 55.9118 63.0299 55.7012C63.0459 55.6905 63.0552 55.6677 63.0659 55.6489C63.2155 55.4087 63.4532 55.2571 63.6603 55.0572C63.6683 54.962 63.679 54.856 63.691 54.7178C63.7364 54.6816 63.7925 54.6306 63.8539 54.589C63.9968 54.4911 64.0342 54.2966 64.1985 54.2201C64.2506 54.0806 64.3241 53.9451 64.3494 53.8015C64.3975 53.5292 64.5418 53.3065 64.694 53.0945C64.8717 52.8463 64.9558 52.5673 65.0239 52.2815C65.0373 52.2252 65.0359 52.1715 65.0707 52.1152C65.2349 51.8455 65.466 51.6174 65.5715 51.3089C65.6503 51.0795 65.8614 50.9077 65.872 50.6448C65.8734 50.6193 65.9068 50.5925 65.9308 50.5697C66.1352 50.3751 66.1993 50.1202 66.2327 49.9002C66.3235 49.7728 66.3996 49.6856 66.4557 49.5876C66.5772 49.377 66.6721 49.1556 66.7375 48.9182C66.7856 48.7384 66.8323 48.5492 66.9753 48.4084C67.0193 48.3654 67.0487 48.2997 67.0647 48.2393C67.1449 47.916 67.3412 47.645 67.4561 47.3378C67.5202 47.1688 67.5803 46.9917 67.6765 46.8414C67.9636 46.3906 68.18 45.909 68.375 45.414C68.4204 45.2972 68.4351 45.1671 68.4605 45.0437C68.4671 45.0088 68.6274 44.503 68.6461 44.4735C68.8705 44.1314 68.9773 43.741 69.0882 43.3533C69.1376 43.1802 69.1697 43.0018 69.2164 42.8274C69.2445 42.7214 69.3727 42.6423 69.2952 42.5081C69.2899 42.4987 69.3112 42.4732 69.3219 42.4558C69.4314 42.2854 69.4355 42.2492 69.3727 42.0654C69.362 42.0359 69.3393 42.0023 69.3446 41.9755C69.3754 41.8306 69.3927 41.679 69.4555 41.5475C69.5183 41.4161 69.545 41.2913 69.5343 41.1504C69.5289 41.0766 69.5143 40.9948 69.5356 40.9277C69.6051 40.7131 69.6264 40.4904 69.6719 40.273C69.6906 40.1832 69.6906 40.112 69.6598 40.0275C69.5997 39.8679 69.5503 39.7056 69.6385 39.5338C69.6665 39.4802 69.6812 39.4037 69.6692 39.346C69.6184 39.1193 69.6812 38.9033 69.6959 38.6819C69.7266 38.2365 69.7987 37.7925 69.768 37.343C69.7627 37.2599 69.7814 37.174 69.7894 37.0895C69.7774 36.9741 69.8081 36.8574 69.7974 36.7447ZM36.3136 30.1991C36.3189 30.0958 36.3617 30.014 36.4431 29.955C36.6275 29.8181 36.769 29.6531 36.8144 29.4197C36.8185 29.3995 36.8251 29.374 36.8385 29.362C37.0442 29.1782 37.1216 28.9139 37.2592 28.6845C37.3473 28.6724 37.4302 28.659 37.5143 28.6509C37.6692 28.6362 37.8055 28.6805 37.931 28.7744C37.9991 28.8253 38.0726 28.8683 38.1474 28.9072C38.289 28.981 38.4279 29.0588 38.5761 29.1151C38.7938 29.1996 39.0235 29.252 39.2573 29.2614C39.5217 29.2721 39.7875 29.2707 40.0493 29.2023C40.1655 29.1728 40.2523 29.1191 40.2804 29.0091C40.3071 28.9045 40.3004 28.7945 40.2042 28.714C40.1708 28.6858 40.1468 28.6429 40.1107 28.6268C39.8503 28.5154 39.6353 28.3075 39.3401 28.2672C39.2907 28.2605 39.2426 28.2297 39.1985 28.2015C39.1077 28.1438 39.0195 28.0915 38.9073 28.0781C38.8366 28.07 38.7578 28.0419 38.7017 27.9989C38.5067 27.8514 38.2823 27.7561 38.0713 27.6367C37.8415 27.5079 37.7093 27.2812 37.5143 27.1189C37.4662 27.08 37.4315 27.0343 37.3714 27.0035C37.1871 26.9096 37.0549 26.7566 36.9574 26.5728C36.8385 26.3474 36.7677 26.0979 36.6047 25.894C36.5647 25.8444 36.57 25.7531 36.5633 25.6807C36.5433 25.4687 36.5633 25.2581 36.5286 25.0421C36.4979 24.8529 36.5647 24.645 36.5994 24.4478C36.6181 24.3445 36.6782 24.2693 36.7624 24.1902C36.9213 24.0413 37.0415 23.8508 37.1764 23.675C37.2151 23.6254 37.2392 23.565 37.2792 23.5167C37.517 23.2323 37.7614 22.96 38.0926 22.7735C38.3036 22.6541 38.4906 22.4931 38.687 22.3482C38.7831 22.2771 38.8806 22.2181 39.0048 22.2114C39.0463 22.2087 39.089 22.1912 39.1237 22.1698C39.2479 22.092 39.3842 22.0839 39.5257 22.0906C39.7394 22.1 39.9451 22.0692 40.1535 22.0061C40.4112 21.9283 40.6784 21.9216 40.9255 22.0651C41.039 22.1309 41.1592 22.1644 41.2914 22.1537C41.3943 22.1456 41.4811 22.1698 41.5332 22.2717C41.5465 22.2986 41.5746 22.3267 41.6013 22.3348C41.827 22.4113 41.9579 22.6299 42.1849 22.7037C42.2263 22.8821 42.2304 23.0485 42.1809 23.2175C42.1596 23.2873 42.1489 23.3651 42.1529 23.4376C42.1689 23.6643 42.1262 23.883 42.0848 24.103C42.0754 24.154 42.0541 24.2049 42.03 24.2519C41.9672 24.3726 41.8831 24.4813 41.8898 24.6343C41.8938 24.7121 41.807 24.7698 41.7308 24.755C41.5438 24.7215 41.3555 24.6852 41.1699 24.641C40.9321 24.5846 40.6971 24.5229 40.462 24.4585C40.3912 24.4397 40.3031 24.4209 40.263 24.37C40.1882 24.2734 40.0787 24.2734 39.9732 24.2184C39.7982 24.3243 39.6166 24.4317 39.4363 24.5444C39.3401 24.6047 39.28 24.6879 39.288 24.81C39.2907 24.8623 39.2933 24.92 39.276 24.9683C39.1745 25.2474 39.2973 25.4365 39.5097 25.5975C39.6206 25.6807 39.7141 25.788 39.8503 25.8296C39.9465 25.8591 40.048 25.8698 40.1415 25.9061C40.239 25.945 40.3284 26.0067 40.4233 26.055C40.4513 26.0697 40.4847 26.0832 40.5141 26.0805C40.7265 26.0563 40.9014 26.1744 41.0937 26.2254C41.425 26.3153 41.7255 26.4736 42.0487 26.5822C42.1676 26.6225 42.3038 26.6681 42.3839 26.7566C42.5496 26.9377 42.7446 27.0853 42.9209 27.2517C43.2027 27.5173 43.3095 27.8527 43.3269 28.2203C43.3429 28.5611 43.3523 28.9032 43.2321 29.2359C43.1973 29.3325 43.2094 29.4478 43.2094 29.5538C43.2107 29.6665 43.192 29.7644 43.1012 29.8423C43.0023 29.9281 42.9449 30.0395 42.8982 30.1629C42.8568 30.2702 42.7846 30.3655 42.7259 30.4661C42.6564 30.5842 42.5322 30.6633 42.5001 30.8055C42.4961 30.8243 42.4774 30.8431 42.4614 30.8552C42.1916 31.0604 41.9699 31.3287 41.6721 31.4991C41.4971 31.5984 41.3155 31.6896 41.1058 31.699C41.055 31.7017 41.0016 31.7191 40.9548 31.7406C40.6917 31.864 40.3966 31.8533 40.1254 31.9418C40.088 31.9539 40.0386 31.9432 39.9999 31.9298C39.8823 31.8909 39.8049 31.9982 39.658 32.0103C39.5565 31.907 39.4296 31.8707 39.284 31.8828C39.2105 31.8895 39.1344 31.8815 39.0596 31.8841C38.8967 31.8922 38.7497 31.8761 38.6108 31.7661C38.496 31.6749 38.3544 31.6118 38.1941 31.6292C38.1541 31.6333 38.1046 31.6279 38.0699 31.6064C37.8349 31.4629 37.5971 31.3207 37.3701 31.1637C37.2632 31.0886 37.1617 31.0215 37.0295 31.0027C36.9467 30.9907 36.8652 30.9585 36.7851 30.9316C36.5513 30.8538 36.558 30.8484 36.4204 30.6526C36.3189 30.5157 36.3056 30.3628 36.3136 30.1991ZM27.2862 30.8498C27.3022 30.7894 27.3356 30.7331 27.357 30.6754C27.3984 30.5667 27.4518 30.4607 27.4745 30.348C27.4945 30.2541 27.4879 30.1589 27.5653 30.0824C27.592 30.0569 27.6041 30.0032 27.6014 29.9643C27.5947 29.849 27.6455 29.7604 27.7136 29.6746C27.7456 29.6343 27.775 29.5807 27.7804 29.531C27.7924 29.421 27.8298 29.3284 27.8939 29.2385C27.9353 29.1809 27.9647 29.1004 27.966 29.0293C27.9687 28.8146 28.0956 28.655 28.177 28.4739C28.2144 28.3893 28.2398 28.2954 28.2558 28.2042C28.2959 27.9949 28.3453 27.791 28.4348 27.5951C28.555 27.3308 28.6044 27.0464 28.6205 26.7593C28.6258 26.6614 28.6325 26.5702 28.6806 26.4829C28.6966 26.4548 28.7246 26.4159 28.7153 26.3957C28.6498 26.2562 28.7647 26.1556 28.7874 26.0362C28.8101 25.9114 28.8395 25.7867 28.8729 25.6632C28.9223 25.4781 28.9811 25.2957 28.9757 25.0998C28.9744 25.0501 29.0011 24.9978 29.0211 24.9495C29.1307 24.6879 29.2615 24.433 29.2869 24.1432C29.2896 24.1057 29.3136 24.0627 29.3404 24.0359C29.3831 23.993 29.3924 23.9568 29.3777 23.8964C29.3617 23.8266 29.3377 23.7273 29.3711 23.6844C29.4953 23.5288 29.518 23.3463 29.5661 23.1639C29.6061 23.015 29.7103 22.8835 29.7838 22.7426C29.8078 22.697 29.8399 22.646 29.8399 22.5977C29.8412 22.4622 29.9334 22.4126 30.0349 22.371C30.1524 22.3227 30.2726 22.2798 30.4022 22.2315C30.5664 22.3012 30.7508 22.2959 30.9284 22.2704C31.0392 22.2543 31.1408 22.2556 31.2383 22.2959C31.3438 22.3388 31.4373 22.3469 31.5454 22.3039C31.6576 22.2597 31.7698 22.2704 31.8793 22.3455C31.9354 22.3844 32.0183 22.4032 32.089 22.4019C32.3695 22.3925 32.5805 22.5186 32.7475 22.7306C32.7849 22.7775 32.833 22.8473 32.8236 22.8969C32.7862 23.1116 32.8944 23.2766 33.0039 23.4282C33.1722 23.6589 33.2176 23.9353 33.3191 24.1888C33.3819 24.3458 33.4567 24.5028 33.4487 24.6799C33.4474 24.7094 33.462 24.7496 33.4834 24.7671C33.6384 24.8932 33.637 25.0864 33.6931 25.2541C33.7198 25.3346 33.7305 25.4271 33.7786 25.4902C33.8748 25.6136 33.9108 25.7531 33.9442 25.898C33.9789 26.0429 34.031 26.1757 34.1098 26.3059C34.2073 26.4668 34.2861 26.6399 34.3369 26.8318C34.3956 27.0558 34.5319 27.257 34.5866 27.4878C34.6334 27.6823 34.6975 27.8742 34.7456 28.0687C34.7576 28.1183 34.7549 28.1787 34.7389 28.227C34.7162 28.2968 34.7295 28.3531 34.7656 28.4095C34.9259 28.6644 34.99 28.9595 35.1209 29.2278C35.2451 29.4854 35.2852 29.7792 35.4374 30.0274C35.4588 30.0623 35.4775 30.1039 35.4815 30.1441C35.5095 30.4071 35.5269 30.6714 35.5603 30.933C35.5737 31.0363 35.6191 31.1342 35.6551 31.2523C35.6084 31.3421 35.555 31.4454 35.4989 31.5568C35.3933 31.5622 35.2999 31.5689 35.205 31.5729C35.1195 31.5769 35.0261 31.5568 34.9513 31.5863C34.8124 31.6413 34.6841 31.644 34.5506 31.5809C34.5239 31.5689 34.4865 31.5702 34.4557 31.5756C34.2447 31.6105 34.0337 31.5608 33.824 31.5756C33.6611 31.5863 33.5075 31.5488 33.3552 31.4978C32.9372 31.3542 32.7088 30.9558 32.7956 30.5184C32.8023 30.4876 32.8063 30.4567 32.8129 30.4165C32.7528 30.3588 32.6914 30.3011 32.63 30.2407C32.6727 30.1763 32.7368 30.1119 32.6727 30.0167C32.5832 29.8865 32.5725 29.7376 32.5819 29.586C32.5966 29.3808 32.5618 29.1835 32.4777 28.9729C32.2653 28.9971 32.049 28.9193 31.8379 28.926C31.6162 28.9327 31.3905 28.934 31.1688 28.9555C31.0553 28.9662 30.9444 29.0118 30.8162 29.044C30.7334 29.2171 30.6239 29.3821 30.5745 29.5619C30.5023 29.8275 30.4649 30.1012 30.3461 30.3534C30.3287 30.3883 30.3367 30.4393 30.3407 30.4809C30.3568 30.6472 30.3113 30.8028 30.2432 30.945C30.1751 31.0859 30.1511 31.2241 30.1511 31.3784C30.1511 31.6091 30.0736 31.6843 29.8506 31.699C29.5968 31.7164 29.3484 31.7902 29.0906 31.7661C29.0519 31.7621 28.9998 31.7768 28.9717 31.8023C28.7968 31.9687 28.5857 31.962 28.3173 31.9405C28.2906 31.907 28.2518 31.809 28.185 31.7822C28.0127 31.7151 27.9393 31.593 27.9153 31.4253C27.9032 31.3408 27.8605 31.2764 27.779 31.2697C27.6214 31.2576 27.5253 31.1275 27.385 31.0805C27.2755 31.0443 27.2541 30.9692 27.2862 30.8498ZM20.3984 23.2538C20.329 23.074 20.4011 22.8848 20.3543 22.697C20.3076 22.5132 20.3477 22.3106 20.5507 22.2006C20.6241 22.1604 20.6348 22.0879 20.6522 22.0128C20.6923 21.8424 20.8058 21.7807 20.9807 21.821C21.0943 21.8478 21.2105 21.8693 21.3187 21.9108C21.4429 21.9578 21.5617 21.994 21.6846 21.9162C21.9664 21.9498 22.2536 21.8491 22.5327 21.9632C22.7544 22.0544 22.876 22.2073 22.8853 22.4381C22.8867 22.481 22.8853 22.5239 22.8867 22.5669C22.8907 22.7856 23.0363 22.9734 22.9681 23.2189C22.9094 23.4282 22.9494 23.6656 22.9468 23.891C22.9454 24.1057 22.9454 24.3203 22.9468 24.535C22.9468 24.5994 22.9334 24.6758 22.9641 24.7241C23.055 24.8731 23.0336 25.022 23.0135 25.183C22.9962 25.3292 23.0015 25.4781 23.0496 25.627C23.0843 25.733 23.079 25.8645 23.0536 25.9758C22.9868 26.2522 22.9868 26.5245 23.0509 26.7996C23.0603 26.8411 23.079 26.8894 23.0656 26.9243C22.9588 27.2208 23.1111 27.5133 23.071 27.8084C23.0643 27.8608 23.075 27.9158 23.0683 27.9694C23.0523 28.0955 23.0082 28.223 23.0176 28.3451C23.0269 28.4698 23.0843 28.5919 23.071 28.722C23.055 28.8683 23.1418 28.9434 23.262 28.981C23.3408 29.0065 23.4289 29.0078 23.5144 29.0118C23.7054 29.0199 23.8964 28.9984 24.0847 29.0641C24.1622 29.091 24.2543 29.0776 24.3398 29.0735C24.6897 29.0561 25.0397 29.1044 25.3896 29.0789C25.6247 29.1567 25.8704 29.1312 26.1095 29.1607C26.211 29.1728 26.3045 29.2386 26.4073 29.2815C26.4461 29.4062 26.4661 29.5015 26.5048 29.5887C26.5556 29.7027 26.5649 29.8047 26.5182 29.9268C26.4902 29.9992 26.4915 30.1025 26.5182 30.1763C26.6144 30.4406 26.5449 30.6807 26.4314 30.9169C26.414 30.9531 26.39 30.9947 26.3566 31.0135C26.2564 31.0711 26.2391 31.161 26.2471 31.2617C26.2604 31.4267 26.1749 31.5206 26.036 31.5836C25.988 31.6051 25.9385 31.6279 25.8931 31.6561C25.8237 31.6977 25.7569 31.7057 25.6821 31.6695C25.4737 31.5689 25.2507 31.5689 25.0263 31.5716C24.8781 31.5729 24.7271 31.5957 24.5842 31.5286C24.5575 31.5166 24.5188 31.5152 24.4921 31.5246C24.273 31.6064 24.0513 31.5675 23.8283 31.5568C23.6814 31.5501 23.5331 31.5716 23.3848 31.5716C23.2473 31.5716 23.107 31.5944 22.9748 31.53C22.9481 31.5179 22.9094 31.5139 22.8827 31.5233C22.6008 31.6199 22.311 31.5555 22.0252 31.5689C21.9544 31.5716 21.8809 31.5461 21.8102 31.5259C21.718 31.5018 21.6285 31.4696 21.5377 31.4414C21.507 31.432 21.4709 31.4293 21.4482 31.4092C21.2599 31.2456 21.0195 31.1879 20.8004 31.0872C20.6776 31.0309 20.5948 30.9437 20.5707 30.8001C20.556 30.7183 20.4705 30.6311 20.4892 30.5654C20.528 30.4218 20.4705 30.2756 20.532 30.1334C20.6335 29.9 20.6001 29.6518 20.564 29.4076C20.5373 29.2292 20.5026 29.0521 20.4746 28.875C20.4719 28.8549 20.4705 28.8267 20.4812 28.8133C20.6108 28.6375 20.528 28.443 20.5266 28.2579C20.5253 28.0781 20.5293 27.8997 20.4879 27.7172C20.4452 27.5347 20.4705 27.3335 20.4799 27.1417C20.4852 27.037 20.5039 26.9284 20.5427 26.8304C20.5894 26.7097 20.5787 26.6104 20.5226 26.4964C20.4518 26.3542 20.4919 26.1891 20.4759 26.0362C20.4599 25.8833 20.4104 25.7263 20.4839 25.5666C20.5106 25.509 20.4866 25.4151 20.4599 25.3493C20.3998 25.2044 20.4118 25.0555 20.4064 24.9066C20.3998 24.6624 20.3944 24.4196 20.361 24.1741C20.325 23.9058 20.2956 23.62 20.3984 23.349C20.4038 23.3195 20.4091 23.2806 20.3984 23.2538ZM27.0578 42.5685C27.0017 42.6557 26.8721 42.6973 26.772 42.7536C26.6611 42.8153 26.5489 42.877 26.4341 42.9307C26.1856 43.0474 25.9332 43.1588 25.6834 43.2728C25.6634 43.2809 25.646 43.2956 25.626 43.2996C25.3549 43.3453 25.0824 43.3895 24.8113 43.4351C24.7485 43.4459 24.6871 43.4593 24.6243 43.47C24.5722 43.4794 24.5081 43.5089 24.4694 43.4888C24.2944 43.3989 24.1128 43.4486 23.9391 43.4633C23.8283 43.4727 23.7321 43.4606 23.6333 43.4298C23.4009 43.356 23.1712 43.2701 22.9254 43.246C22.8947 43.2433 22.8559 43.2366 22.8359 43.2178C22.7317 43.1145 22.6008 43.1306 22.474 43.1266C22.4219 43.1252 22.3698 43.1185 22.3244 43.1145C22.2202 42.9361 22.2189 42.9374 22.0506 42.8636C21.8823 42.7912 21.7287 42.7013 21.6031 42.5618C21.4536 42.3954 21.2879 42.2465 21.0649 42.1754C21.0088 42.158 20.9674 42.0962 20.9166 42.056C20.8672 42.0171 20.8191 41.9621 20.763 41.9487C20.6695 41.9259 20.6161 41.8762 20.5721 41.7957C20.548 41.7528 20.4986 41.7233 20.4585 41.6897C20.4104 41.6482 20.353 41.6146 20.3116 41.5677C20.1473 41.3865 19.9563 41.2189 19.8335 41.0109C19.6678 40.7305 19.4622 40.4729 19.3419 40.1671C19.3192 40.1094 19.2832 39.9403 19.2725 39.8612C19.2578 39.7565 19.2364 39.6519 19.2044 39.5513C19.1469 39.3675 19.0935 39.1864 19.0855 38.9905C19.0828 38.9341 19.0321 38.8805 18.9974 38.8147C19.0441 38.6028 19.0975 38.3774 19.1403 38.1507C19.1536 38.0809 19.1283 38.0044 19.1376 37.9333C19.175 37.6261 19.2485 37.3283 19.3847 37.0465C19.541 36.7205 19.6785 36.3838 19.8201 36.0511C19.8401 36.0041 19.8308 35.9424 19.8508 35.8955C19.8789 35.8284 19.9069 35.7412 19.9617 35.709C20.1219 35.6124 20.138 35.4541 20.178 35.3011C20.4932 35.0771 20.723 34.7632 20.9994 34.4975C21.0288 34.4694 21.0502 34.4157 21.0836 34.4077C21.2826 34.3594 21.4028 34.2051 21.5524 34.0857C21.7087 33.9596 21.8916 33.8697 22.092 33.8227C22.2135 33.7946 22.3337 33.7704 22.4272 33.6631C22.4873 33.5933 22.5902 33.5665 22.6917 33.5732C22.7878 33.5786 22.884 33.5786 22.9802 33.5705C23.0296 33.5665 23.0803 33.5464 23.1257 33.5236C23.3782 33.3974 23.6199 33.2338 23.9271 33.3693C23.9739 33.3907 24.0487 33.3545 24.1088 33.3371C24.273 33.2915 24.4373 33.2874 24.6056 33.3196C24.6831 33.3344 24.7418 33.3639 24.8059 33.4068C24.9355 33.494 25.0731 33.5705 25.212 33.6443C25.2667 33.6725 25.3362 33.7033 25.3923 33.6939C25.5993 33.6591 25.7582 33.7919 25.9426 33.8335C26.1522 34.0253 26.43 34.0186 26.6811 34.0897C26.6905 34.0924 26.6998 34.0991 26.7092 34.1045C26.9082 34.3741 27.1539 34.5914 27.4518 34.7524C27.4838 34.8571 27.5226 34.9577 27.5439 35.061C27.5667 35.1737 27.5359 35.2891 27.4304 35.3387C27.2394 35.4299 27.158 35.6003 27.0725 35.7734C27.003 35.9142 26.9189 36.039 26.9162 36.2148C26.9122 36.4469 26.6678 36.6065 26.4381 36.5663C26.3553 36.5515 26.2631 36.5434 26.1936 36.5019C26.0734 36.4294 25.9279 36.4187 25.8157 36.3489C25.6073 36.2174 25.3696 36.2201 25.1492 36.1517C25.1091 36.1396 25.0624 36.1316 25.0236 36.1423C24.7859 36.2067 24.5415 36.1745 24.3038 36.2054C24.1088 36.2309 23.9071 36.2389 23.7294 36.3583C23.6453 36.4147 23.5304 36.4375 23.4276 36.4469C23.2927 36.4589 23.1818 36.5086 23.083 36.5971C23.075 36.6038 23.067 36.6119 23.0603 36.6186C22.9321 36.7447 22.7317 36.7662 22.6356 36.9473C22.5568 37.0962 22.4326 37.2209 22.3431 37.3658C22.2669 37.4906 22.1614 37.5926 22.1053 37.7388C22.0626 37.8488 22.0158 37.9481 22.0199 38.0688C22.0225 38.1332 22.0319 38.2057 22.0078 38.2593C21.9584 38.3667 21.9731 38.4552 22.0065 38.5652C22.0372 38.6685 22.0492 38.7705 22.1361 38.8469C22.1654 38.8738 22.1962 38.9167 22.1988 38.9543C22.2095 39.134 22.319 39.2722 22.3858 39.4278C22.4286 39.5271 22.478 39.6197 22.5821 39.6707C22.6102 39.6841 22.6356 39.7109 22.6503 39.7377C22.8733 40.1402 23.2887 40.2395 23.6707 40.3924C23.6907 40.4005 23.7121 40.4059 23.7334 40.4045C24.0286 40.3763 24.3265 40.3804 24.6176 40.3119C24.6483 40.3052 24.6804 40.2945 24.7071 40.2771C24.8954 40.1644 25.0944 40.1107 25.3175 40.1228C25.3936 40.1268 25.4818 40.0799 25.5512 40.0356C25.7115 39.9323 25.8664 39.8196 26.0173 39.7029C26.1522 39.5982 26.2938 39.5996 26.4341 39.6693C26.609 39.7579 26.7893 39.9873 26.8748 40.1912C26.9322 40.3294 26.9897 40.4649 27.0938 40.5803C27.1927 40.6889 27.21 40.8526 27.3262 40.9519C27.2862 41.0713 27.3583 41.1196 27.4505 41.1638C27.4705 41.1732 27.4718 41.2202 27.4838 41.2484C27.5199 41.3356 27.5359 41.4469 27.5987 41.5059C27.7349 41.6334 27.7523 41.7783 27.7162 42.0198C27.6147 42.1137 27.4812 42.2224 27.365 42.3471C27.2728 42.441 27.1353 42.4464 27.0578 42.5685ZM30.9765 49.051C30.9578 49.0979 30.9564 49.1543 30.9458 49.212C30.8696 49.2536 30.7975 49.2992 30.72 49.3341C30.6185 49.3797 30.513 49.3797 30.4088 49.3381C30.3501 49.3139 30.2953 49.275 30.2339 49.2616C30.1244 49.2375 30.0643 49.165 30.0456 49.0671C30.0028 48.8337 29.8933 48.6311 29.7838 48.4245C29.7036 48.2715 29.6182 48.1119 29.697 47.916C29.5327 47.9469 29.534 48.077 29.4766 48.1548C29.3016 48.3936 29.3083 48.3963 29.0091 48.3292C28.9477 48.3158 28.8809 48.3225 28.8195 48.3051C28.7059 48.2742 28.5937 48.2407 28.5376 48.1173C28.5203 48.0797 28.4909 48.0462 28.4615 48.0153C28.4174 47.967 28.3654 47.9214 28.2959 47.9442C28.2171 47.971 28.2264 48.0461 28.2358 48.1065C28.2558 48.242 28.2318 48.3775 28.2371 48.5117C28.2451 48.7236 28.1663 48.9088 28.1009 49.0979C28.0355 49.2898 27.8819 49.3488 27.6735 49.3206C27.5066 49.2978 27.397 49.2254 27.3329 49.0725C27.3035 49.004 27.2675 48.9383 27.2154 48.831C27.3156 48.7263 27.2515 48.5573 27.3863 48.4647C27.4117 48.4473 27.4144 48.3856 27.4144 48.344C27.4171 48.022 27.4224 47.7014 27.4117 47.3794C27.4077 47.2425 27.3797 47.103 27.3356 46.9742C27.2915 46.8468 27.2969 46.722 27.2915 46.5946C27.2888 46.5087 27.3049 46.4134 27.2702 46.341C27.186 46.1626 27.2621 46.0338 27.365 45.8943C27.5079 45.8741 27.6535 45.8554 27.8218 45.8312C27.9393 45.8929 28.0288 46.0043 28.0702 46.1559C28.1917 46.2055 28.2131 46.3276 28.2759 46.4228C28.3386 46.5194 28.4428 46.5892 28.4989 46.6885C28.571 46.8146 28.6846 46.891 28.7821 46.9863C28.8088 47.0118 28.8582 47.0145 28.8902 47.0252C28.9904 46.9112 29.0866 46.8132 29.1694 46.7032C29.2696 46.5691 29.3831 46.4376 29.4445 46.286C29.55 46.0284 29.733 45.8527 29.9427 45.6984C30.0148 45.7145 30.0763 45.7427 30.1364 45.74C30.3274 45.7319 30.4489 45.8607 30.5771 45.9654C30.6199 46.0002 30.6479 46.0767 30.6479 46.1344C30.6452 46.443 30.6987 46.7569 30.5878 47.0561C30.5197 47.2385 30.5878 47.4102 30.6078 47.5846C30.6279 47.7523 30.6907 47.9147 30.7094 48.0824C30.7254 48.2286 30.7788 48.3587 30.8656 48.462C31.0219 48.6445 31.0646 48.831 30.9765 49.051ZM34.1966 48.8645C34.19 48.9906 34.1432 49.0818 34.0097 49.1315C33.5823 49.2871 33.1509 49.3703 32.6967 49.2576C32.5231 49.2147 32.3401 49.2106 32.1625 49.1811C31.9368 49.1449 31.7645 49.0403 31.7097 48.7974C31.7004 48.7572 31.6937 48.7089 31.6683 48.6794C31.5882 48.5881 31.5655 48.4983 31.6336 48.3882C31.6483 48.3654 31.6456 48.3239 31.6363 48.2943C31.5388 47.9563 31.5254 47.6048 31.4733 47.26C31.4333 46.993 31.4199 46.7086 31.5094 46.4336C31.5428 46.3289 31.5588 46.2149 31.5294 46.0915C31.4893 45.9224 31.5735 45.7789 31.7004 45.6675C31.7778 45.6005 31.8633 45.5723 31.9635 45.6219C32.093 45.6863 32.2239 45.6783 32.3602 45.6394C32.4857 45.6031 32.6086 45.6179 32.7341 45.6622C32.9879 45.7507 33.2443 45.7681 33.5115 45.6957C33.7492 45.6313 34.0417 45.807 34.1205 46.0432C34.1646 46.1733 34.1432 46.3088 34.043 46.4014C33.9536 46.4846 33.8574 46.5664 33.7105 46.5677C33.4981 46.5691 33.2924 46.5811 33.0827 46.5127C32.9372 46.4644 32.7795 46.4443 32.6179 46.4497C32.3294 46.4577 32.252 46.5449 32.3067 46.8441C32.3962 46.8937 32.4937 46.8884 32.5845 46.8602C32.7969 46.7945 33.0039 46.8025 33.2003 46.9045C33.3512 46.9823 33.4661 46.8857 33.5876 46.8414C33.8106 46.8682 33.9616 46.9903 34.0818 47.1647C34.1285 47.2332 34.1446 47.3029 34.1232 47.3767C34.0965 47.4679 34.0564 47.5538 34.0257 47.6316C33.8908 47.6786 33.7733 47.7255 33.6517 47.7617C33.605 47.7765 33.5489 47.7792 33.5021 47.7698C33.3472 47.7389 33.1869 47.7134 33.04 47.6584C32.8971 47.6048 32.7729 47.6195 32.6393 47.6732C32.4764 47.7376 32.435 47.7886 32.4603 47.9576C32.483 48.1038 32.5164 48.2487 32.5472 48.4017C32.6353 48.4808 32.7301 48.513 32.8597 48.4567C32.9639 48.4097 33.0841 48.3882 33.1989 48.3775C33.4914 48.3493 33.7666 48.4339 34.031 48.5466C34.1686 48.6042 34.2047 48.7277 34.1966 48.8645ZM34.9205 42.7013C34.7269 42.7697 34.5265 42.7 34.3329 42.7429C34.186 42.7751 34.1472 42.7496 34.0724 42.6235C33.9923 42.4866 33.9068 42.3511 33.832 42.2103C33.804 42.158 33.7639 42.1016 33.8026 42.0305C33.8133 42.0104 33.8013 41.9661 33.7866 41.9433C33.6677 41.7702 33.637 41.5744 33.633 41.3691C33.6317 41.3061 33.6183 41.2417 33.5996 41.1826C33.5609 41.0619 33.5141 40.9452 33.4674 40.8177C33.3552 40.8016 33.2337 40.7681 33.1121 40.7694C32.9866 40.7708 32.861 40.8043 32.7355 40.8244C32.7141 40.8271 32.6927 40.8298 32.674 40.8392C32.3174 41.0096 31.9488 40.9586 31.5802 40.8955C31.5601 40.8915 31.5388 40.9009 31.5 40.9063C31.4012 41.0444 31.3144 41.2001 31.273 41.3798C31.2276 41.5771 31.1835 41.7743 31.0927 41.9567C31.0793 41.9849 31.0833 42.0305 31.0633 42.0466C30.8883 42.1834 30.9003 42.382 30.895 42.5738C30.7561 42.712 30.6119 42.7214 30.4262 42.6771C30.0576 42.5913 29.6929 42.4464 29.3003 42.5229C29.148 42.4826 28.9944 42.4477 28.8435 42.4021C28.7326 42.3686 28.6258 42.3243 28.5123 42.2827C28.4201 42.1834 28.3921 42.0547 28.4361 41.9286C28.4735 41.8239 28.4762 41.7206 28.4882 41.6146C28.4936 41.565 28.5149 41.5086 28.5483 41.4724C28.6458 41.3678 28.6952 41.243 28.746 41.1115C28.8195 40.9224 28.9276 40.748 29.0105 40.5615C29.132 40.2891 29.2415 40.0114 29.359 39.7377C29.4218 39.5929 29.4432 39.4372 29.534 39.2977C29.6115 39.1797 29.6422 39.0173 29.6502 38.8724C29.6569 38.7396 29.7076 38.6242 29.729 38.4981C29.7357 38.4565 29.7744 38.4176 29.7731 38.3787C29.7597 38.0836 29.8866 37.8193 29.9507 37.5416C29.9654 37.4799 29.9641 37.4141 29.9721 37.3511C29.9774 37.3095 29.9721 37.2585 29.9935 37.2263C30.1631 36.9781 30.1471 36.6803 30.2219 36.4066C30.2299 36.3758 30.2192 36.3382 30.2339 36.3127C30.4262 35.9612 30.4689 35.5708 30.5357 35.1858C30.5397 35.1643 30.5357 35.1375 30.5477 35.1241C30.6746 34.9671 30.6947 34.7766 30.7281 34.5861C30.7481 34.4734 30.8322 34.3902 30.9524 34.3956C31.11 34.4023 31.2383 34.3312 31.3785 34.2815C31.5348 34.2252 31.6884 34.1689 31.8713 34.24C31.9862 34.2842 32.1358 34.2467 32.268 34.2306C32.5645 34.193 32.8584 34.1675 33.1509 34.2574C33.1909 34.2695 33.2363 34.2695 33.2777 34.2641C33.4767 34.2386 33.5996 34.3473 33.6931 34.5016C33.7425 34.5821 33.7906 34.6652 33.8227 34.7538C33.8721 34.8853 33.9683 34.9242 34.0938 34.9215C34.1312 35.0623 34.1539 35.2059 34.2087 35.3374C34.3262 35.6124 34.3769 35.9062 34.4905 36.1826C34.5733 36.3851 34.6481 36.6038 34.6334 36.8319C34.6254 36.9526 34.6908 37.0345 34.7496 37.1217C34.8284 37.237 34.8938 37.3511 34.8872 37.504C34.8845 37.5818 34.9352 37.6637 34.9673 37.7415C34.9993 37.8193 35.0528 37.8891 35.0741 37.9682C35.1102 38.101 35.1115 38.2446 35.1569 38.372C35.1997 38.4928 35.2611 38.6055 35.2504 38.7396C35.2464 38.7799 35.2571 38.8282 35.2785 38.8617C35.4468 39.126 35.4882 39.4399 35.6177 39.719C35.7647 40.0369 35.9209 40.3522 36.0064 40.6956C36.0117 40.7158 36.0197 40.7426 36.0358 40.752C36.2067 40.8459 36.2161 41.027 36.2749 41.1826C36.3683 41.4322 36.5059 41.6616 36.6315 41.895C36.7169 42.0547 36.7263 42.1915 36.6261 42.3391C36.5981 42.382 36.566 42.433 36.5633 42.4813C36.5553 42.6543 36.4472 42.6946 36.3056 42.6986C36.2428 42.7013 36.1787 42.6986 36.1159 42.6986C35.9036 42.6986 35.6939 42.6758 35.4815 42.7402C35.3666 42.7751 35.2291 42.7429 35.1022 42.7335C35.0421 42.7322 34.9713 42.6839 34.9205 42.7013ZM38.1273 47.6947C38.2062 47.8315 38.1434 47.9402 38.0846 48.0542C38.0699 48.0824 38.0579 48.1132 38.0526 48.1441C37.9631 48.6056 37.6238 48.8632 37.2672 49.1033C37.2004 49.1489 37.1083 49.1811 37.0295 49.1798C36.8732 49.1758 36.7637 49.2402 36.6715 49.3515C36.5633 49.4816 36.4178 49.5434 36.2588 49.5782C36.2081 49.589 36.1493 49.6024 36.1012 49.589C35.9022 49.5313 35.6979 49.5541 35.4975 49.5568C35.36 49.5581 35.2478 49.5232 35.1516 49.4266C35.1129 49.2656 35.0114 49.1087 35.1182 48.937C35.0648 48.7022 35.1342 48.4795 35.185 48.2541C35.1917 48.2232 35.1957 48.187 35.1863 48.1588C35.0982 47.916 35.1276 47.6584 35.0928 47.4076C35.0608 47.1808 35.0194 46.9541 35.0541 46.7166C35.0848 46.5181 35.0635 46.3101 35.0648 46.1076C35.0661 46.0217 35.0608 45.9358 35.0701 45.8513C35.0835 45.7306 35.181 45.63 35.3012 45.6246C35.4708 45.6179 35.6404 45.6179 35.8047 45.5615C35.8328 45.5522 35.8688 45.5562 35.8995 45.5629C36.1052 45.6072 36.3149 45.642 36.5166 45.7037C36.6221 45.7359 36.7236 45.7467 36.8291 45.7453C37.0415 45.7453 37.2231 45.8084 37.3701 45.9707C37.4262 46.0324 37.5009 46.078 37.5664 46.1304C37.7427 46.2712 37.9123 46.4134 37.931 46.667C37.9364 46.7368 37.9911 46.8025 38.0165 46.8723C38.0699 47.0212 38.1273 47.1701 38.1661 47.3244C38.1834 47.3928 38.1581 47.4706 38.1501 47.5444C38.1434 47.5954 38.1073 47.6598 38.1273 47.6947ZM39.8396 49.3676C39.8222 49.4991 39.7461 49.5581 39.6032 49.5863C39.5351 49.5997 39.4683 49.6238 39.4002 49.6346C39.3708 49.6386 39.3361 49.6252 39.308 49.6118C39.1918 49.5594 39.077 49.5058 38.9501 49.4468C38.9781 49.3233 38.9982 49.208 38.8967 49.1127C38.8766 49.0926 38.8806 49.0309 38.8927 48.9946C38.9327 48.8766 38.9234 48.7679 38.8793 48.6512C38.8539 48.5841 38.8633 48.5036 38.8593 48.4285C38.8539 48.344 38.874 48.2554 38.8072 48.1843C38.7965 48.1736 38.7911 48.1508 38.7925 48.1347C38.8873 47.4317 38.878 47.1996 38.7805 46.6496C38.7471 46.4577 38.7457 46.2565 38.7618 46.062C38.7698 45.9694 38.8526 45.8822 38.9194 45.7601C38.9808 45.7386 39.0516 45.7131 39.1397 45.6823C39.2119 45.7172 39.2973 45.7574 39.3735 45.7936C39.4937 46.0982 39.4977 46.4121 39.5685 46.7099C39.491 46.9393 39.5898 47.1446 39.6446 47.3619C39.694 47.5551 39.702 47.7604 39.7221 47.9616C39.7328 48.0676 39.7127 48.1749 39.7675 48.2769C39.7862 48.3118 39.7955 48.3681 39.7795 48.4017C39.6726 48.6391 39.7915 48.8578 39.8276 49.0832C39.8436 49.1758 39.8516 49.275 39.8396 49.3676ZM43.9226 49.4669C43.8545 49.4776 43.7716 49.491 43.6902 49.5058C43.6595 49.5112 43.6274 49.5246 43.5967 49.5219C43.4044 49.5031 43.2761 49.3622 43.1279 49.2616C43.0304 49.1945 42.9756 49.0979 42.9556 48.9692C42.9235 48.7706 42.8234 48.5949 42.7138 48.4272C42.6551 48.3373 42.5843 48.285 42.4748 48.3346C42.3612 48.3856 42.2544 48.3601 42.1355 48.34C41.9485 48.3078 41.7549 48.3185 41.5639 48.3145C41.4918 48.3131 41.4343 48.3574 41.4156 48.4178C41.3248 48.7022 41.0831 48.9128 41.0323 49.216C41.0243 49.2643 40.9882 49.3113 40.9548 49.3515C40.8881 49.4293 40.8079 49.4548 40.7305 49.3918C40.6062 49.2911 40.4286 49.2965 40.3204 49.1543C40.2563 49.0698 40.2042 49.0027 40.247 48.9007C40.3031 48.7679 40.283 48.5975 40.4313 48.5063C40.5395 48.2769 40.7305 48.0931 40.8012 47.8436C40.8186 47.7832 40.836 47.7215 40.852 47.6611C40.8814 47.5484 40.9054 47.433 40.9388 47.3217C40.9989 47.1285 41.075 46.9407 41.1231 46.7448C41.1699 46.5516 41.2059 46.3598 41.3275 46.1907C41.3929 46.0982 41.4263 45.9788 41.4637 45.8674C41.5292 45.6702 41.6734 45.5508 41.8497 45.4649C41.9619 45.4113 42.0794 45.4059 42.1796 45.4945C42.2571 45.5615 42.3893 45.5763 42.4026 45.7064C42.4147 45.8178 42.5028 45.7923 42.5696 45.7977C42.6017 45.8875 42.6257 45.968 42.6577 46.0459C42.6978 46.1438 42.7259 46.2578 42.7926 46.333C42.9623 46.5235 43.0611 46.7394 43.0958 46.9903C43.1012 47.0279 43.1386 47.0614 43.1639 47.0936C43.176 47.1097 43.2067 47.1231 43.208 47.1379C43.216 47.5001 43.5085 47.7376 43.6114 48.0569C43.6341 48.128 43.6755 48.1991 43.6728 48.2702C43.6648 48.4875 43.7676 48.6338 43.9653 48.733C43.8972 48.8752 43.9266 49.0081 43.9586 49.1382C43.9813 49.2469 43.9813 49.3488 43.9226 49.4669ZM44.2244 42.9683C44.2244 43.0032 44.1897 43.0461 44.1603 43.0702C44.0762 43.1386 43.9813 43.1829 43.8692 43.1869C43.4765 43.2017 43.0865 43.2741 42.6911 43.25C42.6377 43.2473 42.5803 43.2433 42.5322 43.2607C42.3853 43.3171 42.2477 43.305 42.0955 43.2688C41.9539 43.2352 41.7936 43.2366 41.652 43.2674C41.4143 43.3211 41.1953 43.3278 40.9669 43.2259C40.8774 43.1856 40.7585 43.1963 40.6543 43.2017C40.5595 43.2071 40.4647 43.2272 40.3738 43.2567C40.267 43.2916 40.1682 43.2889 40.0653 43.2487C39.9745 43.2138 39.8837 43.2245 39.7862 43.2339C39.503 43.2621 39.2239 43.2688 38.9354 43.199C38.6309 43.1252 38.3531 43.0152 38.0619 42.8395C38.0526 42.6275 38.0472 42.4249 37.9524 42.2385C37.9377 42.2103 37.9283 42.1767 37.9297 42.1459C37.9444 41.793 37.8308 41.4483 37.8589 41.0927C37.8696 40.9572 37.8375 40.8191 37.8282 40.6809C37.8255 40.6406 37.8322 40.599 37.8389 40.5588C37.8656 40.3884 37.8656 40.3884 37.712 40.2341C37.74 40.1711 37.7788 40.108 37.7934 40.0396C37.8081 39.9672 37.7814 39.884 37.8041 39.8156C37.8896 39.554 37.8576 39.2856 37.8589 39.02C37.8602 38.9261 37.8335 38.8322 37.8215 38.7369C37.8108 38.6524 37.8081 38.5666 37.7975 38.482C37.7854 38.3774 37.7681 38.2727 37.7534 38.1681C37.7507 38.1466 37.7347 38.1225 37.7414 38.1064C37.8148 37.9333 37.7694 37.7442 37.8121 37.5711C37.8629 37.3618 37.8936 37.1566 37.8616 36.9432C37.8602 36.9325 37.8576 36.9204 37.8616 36.911C37.9444 36.7018 37.8335 36.4938 37.8576 36.2845C37.8616 36.2456 37.8562 36.1852 37.8308 36.1651C37.7654 36.1128 37.7747 36.0511 37.7975 35.9947C37.8682 35.8203 37.8616 35.6406 37.8602 35.4581C37.8589 35.3615 37.8589 35.2649 37.8602 35.1683C37.8629 34.9859 37.8856 34.7967 37.704 34.684C37.7427 34.5915 37.7761 34.5271 37.7934 34.46C37.8095 34.3996 37.8095 34.3352 37.8162 34.2708C37.8776 34.2319 37.931 34.1997 37.9844 34.1648C38.2422 33.9918 38.6629 33.9005 38.9541 33.9743C39.0422 33.9971 39.1117 33.9985 39.1985 33.9716C39.288 33.9448 39.3882 33.9502 39.4843 33.9502C39.6686 33.9502 39.8396 33.9059 40.0025 33.8254C40.2309 33.7114 40.466 33.7355 40.6476 33.9099C40.7385 33.9971 40.8146 34.1004 40.9121 34.2131C40.9121 34.4305 40.9121 34.6652 40.9121 34.8987C40.9121 34.9416 40.9094 34.9886 40.9255 35.0261C40.9816 35.1603 40.9775 35.2998 40.9695 35.438C40.9615 35.5762 40.9989 35.709 40.9816 35.8512C40.9615 36.0176 40.9562 36.1893 41.0109 36.361C41.0417 36.4562 41.0163 36.5703 41.0083 36.6763C41.0043 36.7393 40.9722 36.8024 40.9749 36.8641C40.9869 37.1445 40.9548 37.4182 40.86 37.6838C40.8293 37.7696 40.8694 37.8488 40.8961 37.932C40.9388 38.0608 40.9936 38.1869 40.9215 38.3331C40.8881 38.4015 40.8921 38.5183 40.9308 38.5826C41.023 38.741 40.9829 38.8939 40.9455 39.0455C40.9161 39.1636 40.8987 39.2736 40.9428 39.3903C40.9575 39.4292 40.9629 39.4735 40.9709 39.515C41.0029 39.6935 40.9014 39.8759 40.9762 40.0503C41.0523 40.2261 41.027 40.4085 41.0363 40.5883C41.039 40.6299 41.0483 40.6715 41.0537 40.705C41.0791 40.7238 41.0977 40.7493 41.1111 40.7466C41.3008 40.705 41.4864 40.7614 41.6747 40.76C41.8671 40.7587 42.0594 40.7587 42.2517 40.7627C42.3038 40.7641 42.3559 40.7855 42.408 40.7909C42.5456 40.803 42.6911 40.8446 42.818 40.8137C43.0117 40.7654 43.1907 40.7989 43.3803 40.8137C43.5219 40.8244 43.6207 40.8928 43.7262 40.9586C43.7676 40.9841 43.8104 41.0337 43.8197 41.0793C43.8478 41.2175 43.9386 41.2953 44.0401 41.3785C44.187 41.4966 44.2605 41.6441 44.2284 41.8494C44.2097 41.9688 44.2338 42.1043 44.2698 42.2237C44.346 42.4799 44.2231 42.7187 44.2244 42.9683ZM44.8081 24.8529C44.7213 24.8462 44.6425 24.861 44.5597 24.8677C44.1697 24.9012 43.7743 24.9535 43.3843 24.7966C43.3322 24.6705 43.2788 24.543 43.2281 24.4209C43.2414 24.3324 43.2654 24.2492 43.2668 24.1647C43.2681 23.8991 43.2481 23.6321 43.2601 23.3678C43.2708 23.1263 43.208 22.8835 43.2721 22.6447C43.2908 22.5749 43.3215 22.5078 43.3483 22.4341C43.5152 22.3965 43.6728 22.3898 43.8291 22.4354C43.9773 22.4797 44.1202 22.4757 44.2685 22.4367C44.37 22.4113 44.4795 22.4099 44.585 22.4072C44.7774 22.4032 44.9697 22.4059 45.162 22.4059C45.2261 22.4059 45.2969 22.3911 45.353 22.4126C45.6415 22.5213 45.938 22.4636 46.2305 22.4703C46.5177 22.4757 46.8062 22.4367 47.092 22.5011C47.1401 22.5119 47.1948 22.4877 47.2469 22.4757C47.673 22.3777 48.103 22.3334 48.5425 22.3375C48.7722 22.3402 49.0019 22.2784 49.233 22.2503C49.3478 22.2369 49.468 22.2127 49.5802 22.2288C49.6951 22.2449 49.7979 22.2717 49.9195 22.2382C49.9996 22.2154 50.1065 22.2623 50.1919 22.2999C50.3162 22.3549 50.4324 22.4327 50.5526 22.4971C50.618 22.532 50.6861 22.5776 50.7556 22.5843C50.9653 22.6071 51.0601 22.7614 51.1656 22.909C51.1843 22.9345 51.2097 22.972 51.203 22.9962C51.1589 23.1558 51.2538 23.3088 51.2177 23.4657C51.1536 23.7461 51.1135 24.0292 51.1002 24.3163C51.0868 24.5967 50.7703 24.7845 50.5232 24.6544C50.4324 24.6061 50.3455 24.5953 50.2494 24.5886C50.0263 24.5752 49.8033 24.6101 49.5802 24.5564C49.4867 24.5336 49.3705 24.5752 49.2717 24.6074C49.1007 24.6638 48.9512 24.6638 48.7855 24.5631C48.6159 24.4612 48.4436 24.5833 48.4303 24.7859C48.4289 24.7966 48.4303 24.8073 48.4303 24.818C48.4223 25.0045 48.5158 25.1776 48.4436 25.3815C48.3862 25.5438 48.4303 25.7424 48.4303 25.9249C48.4303 26.118 48.4303 26.3112 48.4303 26.5044C48.4303 26.5581 48.4116 26.6278 48.4369 26.6627C48.5398 26.8022 48.457 26.9766 48.5371 27.1215C48.5972 27.2315 48.5892 27.3577 48.5825 27.4878C48.5758 27.6193 48.5999 27.7521 48.5585 27.8849C48.5478 27.9211 48.5585 27.9775 48.5812 28.007C48.6894 28.1532 48.6573 28.337 48.7228 28.494C48.7348 28.5208 48.7375 28.5584 48.7281 28.5865C48.6667 28.7878 48.5905 28.9877 48.6707 29.2023C48.5652 29.4827 48.6319 29.7752 48.6199 30.0623C48.6146 30.2085 48.6413 30.3561 48.6573 30.5439C48.5558 30.7062 48.3929 30.8417 48.1645 30.9115C48.0576 30.9437 47.9267 30.9263 47.8426 31.0349C47.8266 31.055 47.7651 31.0416 47.7251 31.0389C47.6195 31.0322 47.5127 31.0188 47.4072 31.0161C47.2416 31.0121 47.08 31.0725 46.9063 31.0242C46.8315 31.0041 46.7327 31.0711 46.6245 31.1047C46.4429 30.8619 46.2479 30.615 46.0302 30.3776C46.1263 30.2997 46.2158 30.2273 46.304 30.1562C46.1945 29.9509 46.1945 29.9509 46.1931 29.7296C46.1918 29.6115 46.1904 29.4935 46.1931 29.3754C46.1971 29.2453 46.1758 29.1232 46.1343 28.9984C46.0622 28.777 46.0061 28.549 45.95 28.3236C45.9353 28.2632 45.926 28.1894 45.946 28.1331C46.0449 27.8433 45.926 27.571 45.8953 27.2919C45.8726 27.0813 45.7964 26.8787 45.8098 26.66C45.8178 26.5366 45.7484 26.4051 45.7671 26.2844C45.7844 26.1704 45.8111 26.0577 45.8165 25.9396C45.8272 25.7276 45.7751 25.5116 45.8565 25.3037C45.8659 25.2796 45.8579 25.2299 45.8405 25.2152C45.7457 25.136 45.7684 25.0247 45.759 24.9281C45.731 24.916 45.7123 24.9026 45.6923 24.9012C45.3984 24.8838 45.1019 24.8757 44.8081 24.8529ZM51.5062 42.7885C51.402 42.9079 51.414 43.0447 51.4073 43.1829C51.4007 43.3131 51.3566 43.364 51.2337 43.3667C51.0227 43.3707 50.8103 43.4016 50.6087 43.2889C50.4324 43.191 50.2561 43.2594 50.0878 43.3493C49.9889 43.309 49.8941 43.2393 49.7979 43.2366C49.5762 43.2312 49.3518 43.2527 49.1301 43.2795C49.0553 43.2889 48.9899 43.301 48.9138 43.2795C48.6146 43.1923 48.1565 43.2312 47.856 43.2768C47.4272 43.3426 46.9891 43.3506 46.5551 43.3654C46.4108 43.3707 46.2652 43.3157 46.1464 43.2943C46.0529 43.3359 46.0449 43.462 45.9514 43.4231C45.7964 43.3573 45.6388 43.4204 45.4866 43.3909C45.4332 43.3144 45.3851 43.2339 45.3263 43.1641C45.2569 43.081 45.2301 42.9897 45.2849 42.8985C45.3717 42.7523 45.3731 42.5953 45.3877 42.4343C45.3998 42.3096 45.4559 42.1902 45.4959 42.0506C45.4465 41.9607 45.3904 41.8588 45.3357 41.7568C45.4291 41.5851 45.4719 41.4094 45.4024 41.2135C45.3784 41.1477 45.3784 41.0632 45.3971 40.9935C45.4652 40.7292 45.4692 40.4676 45.3944 40.2046C45.3851 40.1738 45.3811 40.1402 45.3851 40.1094C45.4171 39.9001 45.4518 39.6908 45.4852 39.4828C45.4906 39.452 45.5066 39.4117 45.4946 39.3903C45.4064 39.2373 45.4986 39.1045 45.528 38.9623C45.564 38.7866 45.6201 38.6041 45.6028 38.4324C45.5881 38.2888 45.6535 38.1641 45.6322 38.0272C45.6135 37.9065 45.7457 37.7871 45.6469 37.6583C45.6402 37.6489 45.6522 37.614 45.6655 37.6006C45.8819 37.3672 45.8432 37.0761 45.7964 36.8104C45.735 36.4643 45.7323 36.1343 45.8539 35.7895C45.8045 35.7023 45.727 35.6379 45.7991 35.544C45.7203 35.2005 45.7978 34.837 45.6749 34.5042C45.6108 34.3298 45.6549 34.1943 45.7243 34.0441C45.8218 34.0159 45.9207 33.9797 46.0222 33.9569C46.2278 33.9126 46.4295 33.8388 46.6446 33.9394C46.698 33.9649 46.8062 33.9448 46.8502 33.9046C46.9224 33.8375 46.9945 33.8241 47.08 33.8241C47.2082 33.8254 47.3377 33.8361 47.4646 33.8214C47.6369 33.7999 47.7438 33.9059 47.8546 33.9998C47.9254 34.0602 47.9828 34.1434 48.0336 34.2239C48.1097 34.3486 48.1792 34.4667 48.1899 34.6304C48.2059 34.8812 48.282 35.1294 48.3328 35.3776C48.3394 35.4085 48.3688 35.446 48.3595 35.4675C48.294 35.6137 48.3581 35.7559 48.3568 35.8981C48.3568 36.0444 48.3688 36.1906 48.3648 36.3368C48.3635 36.3986 48.3394 36.4603 48.3288 36.5233C48.3194 36.5756 48.2954 36.636 48.3127 36.6789C48.3755 36.8292 48.3261 36.9875 48.3581 37.1418C48.3902 37.2961 48.3648 37.4624 48.3675 37.6234C48.3688 37.6985 48.3608 37.7777 48.3862 37.8461C48.4396 37.9937 48.4503 38.1359 48.3902 38.2835C48.3755 38.3197 48.3675 38.3734 48.3849 38.4069C48.457 38.5505 48.4276 38.702 48.4303 38.8496C48.4343 39.1072 48.4329 39.3648 48.4303 39.6224C48.4289 39.7713 48.4436 39.9202 48.3809 40.0651C48.3528 40.1295 48.3675 40.2127 48.3688 40.2878C48.3715 40.54 48.4169 40.5829 48.6747 40.5736C48.7281 40.5722 48.7842 40.5722 48.831 40.5521C48.9565 40.4984 49.074 40.5226 49.2036 40.5467C49.4974 40.6004 49.7966 40.6057 50.0824 40.4877C50.1505 40.4595 50.2173 40.4246 50.2747 40.3965C50.4831 40.4434 50.6728 40.4931 50.841 40.6205C50.9532 40.7064 51.0294 40.8016 51.036 40.9318C51.0427 41.0605 51.0868 41.1531 51.1736 41.243C51.223 41.294 51.2644 41.3704 51.2751 41.4402C51.2952 41.5717 51.3232 41.6884 51.4314 41.777C51.4568 41.7971 51.4728 41.8668 51.4568 41.8923C51.4047 41.9795 51.4447 42.0547 51.4621 42.1378C51.4928 42.2921 51.5115 42.4491 51.5276 42.6047C51.5342 42.6651 51.5396 42.7496 51.5062 42.7885Z" fill="#FF4444"/>
    <path fill-rule="evenodd" clip-rule="evenodd" d="M32.0637 27.0639C32.0891 26.8023 32.1291 26.5621 31.9502 26.3475C31.9141 26.3045 31.9114 26.2308 31.8981 26.1704C31.8794 26.0885 31.862 26.0067 31.85 25.9235C31.8246 25.7464 31.7525 25.5774 31.7672 25.3909C31.7712 25.3359 31.7311 25.2769 31.6977 25.179C31.5709 25.3265 31.5161 25.4459 31.5201 25.5935C31.5214 25.6552 31.5107 25.7236 31.4854 25.7786C31.3652 26.0416 31.3625 26.3341 31.277 26.6051C31.2329 26.7432 31.2209 26.8922 31.1929 27.0464C31.2743 27.0786 31.3425 27.1323 31.4079 27.1283C31.6243 27.1189 31.8393 27.088 32.0637 27.0639Z" fill="#FF4444"/>
    <path fill-rule="evenodd" clip-rule="evenodd" d="M37.1122 46.8843C37.0722 46.7354 36.9773 46.6509 36.8224 46.6267C36.6034 46.5919 36.3857 46.5436 36.1666 46.5073C36.1052 46.4966 36.0424 46.506 35.9529 46.506C35.9048 46.9299 35.9462 47.3123 35.9396 47.6933C35.9396 47.7242 35.9489 47.7564 35.9569 47.7872C36.0037 47.9683 36.0651 48.1441 36.009 48.3399C35.9863 48.4191 36.0277 48.5143 36.0424 48.627C36.1666 48.5506 36.2708 48.4848 36.407 48.4889C36.4738 48.4915 36.5419 48.4339 36.61 48.4057C36.797 48.3265 36.8785 48.14 37.0134 48.0072C37.1389 47.8825 37.199 47.7242 37.2471 47.5591C37.2578 47.5202 37.2712 47.4733 37.2618 47.4357C37.2151 47.2506 37.163 47.0681 37.1122 46.8843Z" fill="#FF4444"/>
    <path fill-rule="evenodd" clip-rule="evenodd" d="M42.058 46.9044C41.9325 46.9769 41.9819 47.0842 41.9605 47.1714C41.9365 47.268 41.8937 47.3592 41.8577 47.4558C42.0153 47.5215 42.1622 47.6154 42.3412 47.5001C42.2784 47.2868 42.265 47.06 42.058 46.9044Z" fill="#FF4444"/>
    <path fill-rule="evenodd" clip-rule="evenodd" d="M32.7127 38.6162C32.7274 38.3157 32.5645 38.0635 32.5004 37.7858C32.495 37.7643 32.4429 37.7321 32.4269 37.7388C32.3935 37.7536 32.3468 37.7885 32.3441 37.8193C32.3267 38.0018 32.3014 38.1789 32.1785 38.3264C32.1651 38.3425 32.1571 38.364 32.1518 38.3841C32.0716 38.6806 31.9928 38.9758 31.9073 39.2897C31.9848 39.2964 32.0649 39.3272 32.1264 39.3058C32.2853 39.2508 32.4322 39.2508 32.5925 39.3058C32.674 39.334 32.7848 39.3433 32.8583 39.2199C32.8289 39.0992 32.7982 38.9664 32.7648 38.8335C32.7488 38.7598 32.71 38.6873 32.7127 38.6162Z" fill="#FF4444"/>
  </g>
  <defs>
    <clipPath id="clip0_265_11116">
      <rect width="70" height="75" fill="white"/>
    </clipPath>
  </defs>
</svg>